<svg width="156" height="156" viewBox="0 0 156 156" fill="none" xmlns="http://www.w3.org/2000/svg">
<rect width="156" height="156" fill="#F5F5F5"/>
<g id="fbIcon 1" clip-path="url(#clip0_0_1)">
<path id="f-bckn" fill-rule="evenodd" clip-rule="evenodd" d="M-1.942 28.924C-1.942 28.111 -1.942 27.297 -1.942 26.483C-0.933999 26.42 -0.879999 25.689 -0.569999 24.907C3.931 13.58 10.91 4.576 22.95 0.378998C23.78 0.0899976 24.115 -0.667002 23.819 -1.579C60.203 -1.57 96.585 -1.562 132.969 -1.553C133.119 0.398998 134.807 1.141 136.155 1.616C142.593 3.889 146.684 8.946 150.991 13.709C153.499 16.482 153.921 20.785 157.491 22.858C157.482 59.468 157.473 96.078 157.464 132.689C152.802 137.743 150.401 144.404 144.642 148.849C139.863 152.538 134.119 153.893 129.251 157.089C122.302 157.087 115.353 157.085 108.402 157.084C108.473 139.034 108.807 120.978 108.467 102.937C108.357 97.082 110.327 95.846 115.747 95.999C128.99 96.369 128.991 96.128 130.828 83.249C131.086 81.441 131.417 79.645 131.738 77.849C132.541 73.354 131.25 70.798 126.092 71.664C125.095 71.831 124.055 71.746 123.034 71.753C108.213 71.851 108.213 71.85 108.593 56.855C108.786 49.196 111.47 46.477 119.097 45.335C123.637 44.655 129.964 47.615 132.299 43.712C134.47 40.082 132.912 34.243 132.992 29.377C132.999 28.971 132.922 28.555 132.986 28.16C133.617 24.303 131.5 23.147 128.107 23.138C121.986 23.122 115.829 22.624 109.755 23.135C103.002 23.703 97.134 26.342 92.105 31.434C84.491 39.146 83.7 48.493 83.76 58.354C83.841 71.635 83.775 71.979 70.372 71.541C64.294 71.342 62.185 73.296 63.084 79.035C63.209 79.828 63.091 80.658 63.093 81.47C63.124 95.88 63.132 96.208 77.28 95.897C83.036 95.77 83.964 97.921 83.906 102.885C83.693 120.948 83.853 139.015 83.873 157.08C65.068 157.076 46.264 157.071 27.459 157.067C27.204 155.828 26.101 155.653 25.171 155.374C12.02 151.434 3.588 142.92 -0.0459991 129.722C-0.316999 128.736 -0.643999 127.755 -1.967 127.773C-1.967 126.146 -1.967 124.518 -1.966 122.891C0.231001 121.801 -0.517999 119.736 -0.515999 118.064C-0.481999 89.552 -0.513999 61.044 -0.543999 32.534C-0.544999 31.175 -0.166999 29.623 -1.942 28.924Z" fill="#FF2625"/>
<path id="f-letter" fill-rule="evenodd" clip-rule="evenodd" d="M83.874 157.079C83.854 139.014 83.694 120.947 83.907 102.884C83.965 97.92 83.037 95.769 77.281 95.896C63.133 96.208 63.125 95.879 63.094 81.469C63.092 80.657 63.209 79.827 63.085 79.034C62.187 73.295 64.295 71.341 70.373 71.54C83.775 71.978 83.842 71.635 83.761 58.353C83.7 48.492 84.491 39.145 92.106 31.433C97.135 26.34 103.003 23.702 109.756 23.134C115.829 22.623 121.986 23.121 128.108 23.137C131.501 23.147 133.618 24.303 132.987 28.159C132.923 28.554 133 28.97 132.993 29.376C132.913 34.243 134.471 40.081 132.3 43.711C129.965 47.613 123.638 44.653 119.098 45.334C111.471 46.476 108.787 49.194 108.594 56.854C108.214 71.85 108.214 71.85 123.035 71.752C124.056 71.745 125.096 71.831 126.093 71.663C131.251 70.797 132.542 73.352 131.739 77.848C131.418 79.645 131.087 81.441 130.829 83.248C128.992 96.127 128.991 96.368 115.748 95.998C110.328 95.846 108.357 97.081 108.468 102.936C108.808 120.977 108.474 139.034 108.403 157.083C100.226 157.083 92.05 157.081 83.874 157.079Z" fill="#FCFDF8"/>
</g>
<defs>
<clipPath id="clip0_0_1">
<rect width="155.34" height="155.34" fill="white"/>
</clipPath>
</defs>
</svg>
