<svg width="78" height="78" viewBox="0 0 78 78" fill="none" xmlns="http://www.w3.org/2000/svg">
<rect width="78" height="78" fill="#F5F5F5"/>
<g id="instaIcon 1">
<g id="Group">
<path id="Vector" fill-rule="evenodd" clip-rule="evenodd" d="M77.4 13.199C77.4 30.799 77.4 48.399 77.4 65.998C76.451 65.879 76.256 66.678 76.004 67.262C73.99 71.944 70.574 75.092 65.779 76.782C65.231 76.975 64.651 77.214 64.8 77.999C46.999 77.999 29.2 77.999 11.4 77.999C11.126 77.114 10.46 76.632 9.69 76.181C6.123 74.091 2.782 71.767 1.268 67.634C1.075 67.105 0.724 66.573 0 66.601C0 48.4 0 30.2 0 12C1.026 11.856 1.016 10.911 1.373 10.24C2.911 7.35 4.711 4.768 7.607 2.94C9.08 2.01 11.34 2.141 12 0C29.6 0 47.2 0 64.8 0C67.275 1.688 69.817 3.288 72.207 5.09C74.909 7.125 75.677 10.486 77.4 13.199ZM67.348 38.892C67.72 34.096 67.715 29.302 67.264 24.518C66.583 17.289 61.397 11.504 54.137 10.729C43.992 9.646 33.781 9.703 23.635 10.711C16.377 11.433 11.123 16.705 10.321 23.987C9.213 34.033 9.201 44.143 10.25 54.195C10.992 61.312 15.709 66.265 22.76 67.304C32.886 68.798 43.111 68.327 53.258 67.574C61.522 66.961 67.346 59.955 67.348 52.07C67.349 47.678 67.348 43.285 67.348 38.892Z" fill="url(#paint0_linear_0_1)"/>
<path id="Vector_2" fill-rule="evenodd" clip-rule="evenodd" d="M38.327 62.361C34.029 62.361 29.725 62.515 25.435 62.324C19.711 62.066 16.067 58.476 15.513 52.72C14.677 44.04 14.803 35.331 15.42 26.659C16 18.528 20.28 15.772 27.268 15.638C34.964 15.491 42.667 15.478 50.363 15.631C57.678 15.777 61.546 18.998 62.038 26.135C62.65 34.997 62.862 43.925 61.812 52.786C61.08 58.968 57.536 62.104 51.221 62.354C46.929 62.524 42.625 62.387 38.326 62.387C38.327 62.379 38.327 62.371 38.327 62.361ZM23.895 38.935C23.708 48.084 30.283 53.658 38.305 53.939C46.545 54.228 53.428 47.548 53.551 39.501C53.681 31.05 47.193 24.216 38.933 24.06C31.262 23.915 23.578 30.881 23.895 38.935ZM53.954 27.07C55.823 27.052 58.137 25.286 58.124 24.054C58.105 22.227 55.602 19.704 53.804 19.824C51.376 19.985 50.643 21.906 50.63 23.782C50.615 25.808 52.071 26.959 53.954 27.07Z" fill="url(#paint1_linear_0_1)"/>
<path id="Vector_3" fill-rule="evenodd" clip-rule="evenodd" d="M23.895 38.935C23.578 30.881 31.262 23.915 38.934 24.06C47.193 24.217 53.682 31.05 53.552 39.501C53.429 47.548 46.546 54.228 38.306 53.939C30.283 53.658 23.709 48.084 23.895 38.935ZM48.123 39.154C48.164 34.029 43.88 29.57 38.888 29.539C33.558 29.506 29.038 33.92 29.093 39.103C29.148 44.291 33.509 48.643 38.642 48.629C43.871 48.617 48.081 44.41 48.123 39.154Z" fill="white"/>
<path id="Vector_4" fill-rule="evenodd" clip-rule="evenodd" d="M48.123 39.154C48.081 44.41 43.871 48.617 38.642 48.629C33.509 48.643 29.148 44.291 29.093 39.103C29.038 33.919 33.558 29.505 38.888 29.539C43.879 29.569 48.164 34.029 48.123 39.154Z" fill="url(#paint2_linear_0_1)"/>
</g>
</g>
<defs>
<linearGradient id="paint0_linear_0_1" x1="38.7" y1="0" x2="38.7" y2="77.999" gradientUnits="userSpaceOnUse">
<stop stop-color="#FF2625"/>
<stop offset="1" stop-color="#30411A"/>
</linearGradient>
<linearGradient id="paint1_linear_0_1" x1="38.7349" y1="15.5219" x2="38.7349" y2="62.4392" gradientUnits="userSpaceOnUse">
<stop stop-color="#FF2625"/>
<stop offset="1" stop-color="#30411A"/>
</linearGradient>
<linearGradient id="paint2_linear_0_1" x1="38.6079" y1="29.5388" x2="38.6079" y2="48.629" gradientUnits="userSpaceOnUse">
<stop stop-color="#FF2625"/>
<stop offset="1" stop-color="#30411A"/>
</linearGradient>
</defs>
</svg>
